<mxfile host="app.diagrams.net" modified="2021-02-21T20:26:49.783Z" agent="5.0 (X11; Linux x86_64) AppleWebKit/537.36 (KHTML, like Gecko) Chrome/88.0.4324.151 Safari/537.36" etag="89W_zq8BlHvOTSOQistO" version="14.4.2" type="github">
  <diagram id="N-TCD1KnkXYzSlmBK1tw" name="Page-1">
    <mxGraphModel dx="1378" dy="743" grid="1" gridSize="10" guides="1" tooltips="1" connect="1" arrows="1" fold="1" page="1" pageScale="1" pageWidth="827" pageHeight="1169" math="0" shadow="0">
      <root>
        <mxCell id="0" />
        <mxCell id="1" parent="0" />
        <mxCell id="CiH4dBwhksO4VH5aBV5h-1" value="" style="image;html=1;image=img/lib/clip_art/networking/Switch_128x128.png" vertex="1" parent="1">
          <mxGeometry x="100" y="220" width="90" height="80" as="geometry" />
        </mxCell>
        <mxCell id="CiH4dBwhksO4VH5aBV5h-2" value="" style="image;html=1;image=img/lib/clip_art/networking/Wireless_Router_N_128x128.png" vertex="1" parent="1">
          <mxGeometry x="590" y="140" width="80" height="80" as="geometry" />
        </mxCell>
        <mxCell id="CiH4dBwhksO4VH5aBV5h-6" style="edgeStyle=orthogonalEdgeStyle;rounded=0;orthogonalLoop=1;jettySize=auto;html=1;" edge="1" parent="1" source="CiH4dBwhksO4VH5aBV5h-3" target="CiH4dBwhksO4VH5aBV5h-1">
          <mxGeometry relative="1" as="geometry">
            <Array as="points">
              <mxPoint x="270" y="170" />
              <mxPoint x="145" y="170" />
            </Array>
          </mxGeometry>
        </mxCell>
        <mxCell id="CiH4dBwhksO4VH5aBV5h-7" style="edgeStyle=orthogonalEdgeStyle;rounded=0;orthogonalLoop=1;jettySize=auto;html=1;" edge="1" parent="1" source="CiH4dBwhksO4VH5aBV5h-3" target="CiH4dBwhksO4VH5aBV5h-2">
          <mxGeometry relative="1" as="geometry" />
        </mxCell>
        <mxCell id="CiH4dBwhksO4VH5aBV5h-3" value="" style="image;html=1;image=img/lib/clip_art/networking/Bridge_128x128.png" vertex="1" parent="1">
          <mxGeometry x="230" y="50" width="80" height="80" as="geometry" />
        </mxCell>
        <mxCell id="CiH4dBwhksO4VH5aBV5h-5" style="edgeStyle=none;rounded=0;orthogonalLoop=1;jettySize=auto;html=1;" edge="1" parent="1" source="CiH4dBwhksO4VH5aBV5h-4" target="CiH4dBwhksO4VH5aBV5h-3">
          <mxGeometry relative="1" as="geometry" />
        </mxCell>
        <mxCell id="CiH4dBwhksO4VH5aBV5h-4" value="" style="ellipse;shape=cloud;whiteSpace=wrap;html=1;" vertex="1" parent="1">
          <mxGeometry x="40" y="60" width="120" height="80" as="geometry" />
        </mxCell>
      </root>
    </mxGraphModel>
  </diagram>
</mxfile>
